<?xml version="1.0" encoding="UTF-8" standalone="no"?>
<!-- Created with Inkscape (http://www.inkscape.org/) -->

<svg
   xmlns:dc="http://purl.org/dc/elements/1.1/"
   xmlns:cc="http://creativecommons.org/ns#"
   xmlns:rdf="http://www.w3.org/1999/02/22-rdf-syntax-ns#"
   xmlns:svg="http://www.w3.org/2000/svg"
   xmlns="http://www.w3.org/2000/svg"
   xmlns:sodipodi="http://sodipodi.sourceforge.net/DTD/sodipodi-0.dtd"
   xmlns:inkscape="http://www.inkscape.org/namespaces/inkscape"
   width="272.07428"
   height="61.962574"
   viewBox="0 0 272.07428 61.962574"
   id="svg2"
   version="1.1"
   inkscape:version="0.91 r13725"
   sodipodi:docname="logo.svg">
  <defs
     id="defs4" />
  <sodipodi:namedview
     id="base"
     pagecolor="#ffffff"
     bordercolor="#666666"
     borderopacity="1.0"
     inkscape:pageopacity="0"
     inkscape:pageshadow="2"
     inkscape:zoom="1.979899"
     inkscape:cx="69.384509"
     inkscape:cy="-44.506058"
     inkscape:document-units="px"
     inkscape:current-layer="layer1"
     showgrid="false"
     showguides="true"
     inkscape:guide-bbox="true"
     inkscape:window-width="1535"
     inkscape:window-height="876"
     inkscape:window-x="65"
     inkscape:window-y="24"
     inkscape:window-maximized="1"
     fit-margin-top="0"
     fit-margin-left="0"
     fit-margin-right="0"
     fit-margin-bottom="0"
     showborder="false"
     units="px">
    <sodipodi:guide
       position="24205.733,-19867.102"
       orientation="0,1"
       id="guide4273" />
    <inkscape:grid
       type="xygrid"
       id="grid4288"
       originx="24695.657"
       originy="-20582.29" />
    <sodipodi:guide
       position="23762.856,-19357.856"
       orientation="0,272.07428"
       id="guide4574" />
    <sodipodi:guide
       position="24034.93,-19357.856"
       orientation="-58.96257,0"
       id="guide4576" />
    <sodipodi:guide
       position="24034.93,-19298.894"
       orientation="0,-272.07428"
       id="guide4578" />
    <sodipodi:guide
       position="23762.856,-19298.894"
       orientation="58.96257,0"
       id="guide4580" />
    <sodipodi:guide
       position="23762.856,-19357.856"
       orientation="0,272.07428"
       id="guide4582" />
    <sodipodi:guide
       position="24034.93,-19357.856"
       orientation="-58.96257,0"
       id="guide4584" />
    <sodipodi:guide
       position="24034.93,-19298.894"
       orientation="0,-272.07428"
       id="guide4586" />
    <sodipodi:guide
       position="23762.856,-19298.894"
       orientation="58.96257,0"
       id="guide4588" />
  </sodipodi:namedview>
  <metadata
     id="metadata7">
    <rdf:RDF>
      <cc:Work
         rdf:about="">
        <dc:format>image/svg+xml</dc:format>
        <dc:type
           rdf:resource="http://purl.org/dc/dcmitype/StillImage" />
        <dc:title />
      </cc:Work>
    </rdf:RDF>
  </metadata>
  <g
     inkscape:label="Layer 1"
     inkscape:groupmode="layer"
     id="layer1"
     transform="translate(24695.657,19591.89)">
    <g
       id="g4313">
      <path
         sodipodi:nodetypes="ccccccccccccccccccccccccccsccccccccsccccccccccccccc"
         style="fill:#001580;fill-opacity:1;stroke:#000094;stroke-width:2.04815578;stroke-miterlimit:4;stroke-dasharray:none;stroke-opacity:1"
         d="m -24640.495,-19590.862 0,0.695 -0.584,-0.249 -20.334,44.201 -19.069,-44.118 -13.608,0.02 25.702,58.498 0.643,0 -0.07,0.157 13.609,0.02 9.948,-23.015 0,0.163 24.307,0 c 0.921,1.609 1.277,3.36 1.04,5.106 -0.35,2.43 -1.834,4.725 -4.214,6.52 l 0,-0.477 -20.334,0.388 -4.051,11.756 20.988,-0.164 -0,0.01 c 0.918,0.07 1.854,0.06 2.797,-0.03 l 0.603,-0 0,-0.05 c 4.768,-0.602 9.395,-3.199 12.704,-7.13 4.151,-4.935 5.659,-11.286 3.949,-16.626 -0.691,-2.136 -1.87,-4.016 -3.457,-5.511 0.916,-0.752 1.785,-1.57 2.584,-2.461 4.745,-5.284 6.469,-12.084 4.514,-17.801 -1.762,-5.153 -6.284,-8.746 -12.129,-9.637 -0.533,-0.08 -1.076,-0.135 -1.623,-0.17 l 0.477,0.03 -24.311,-0.135 z m 6.692,12.034 15.408,0.674 c 0.09,0.186 -3.037,-0.995 0.333,0.525 1.278,0.576 2.072,1.716 1.888,2.962 0.357,2.958 -0.811,6.839 -6.8,8.29 l -0,0.03 -1.447,0 c 0.08,-0.01 0.155,-0.02 0.248,-0.04 -0.174,-0.01 -0.351,-0.03 -0.532,-0.06 -0.03,0.05 -0.03,0.08 0,0.09 l -14.489,0 5.393,-12.478 z m 9.623,12.44 c 0.424,0.03 0.826,0.04 1.206,0.01 l 0.03,-0.114 c 0.202,-0.231 -18.184,-0.142 -18.782,-0.03 z"
         id="path4352"
         inkscape:connector-curvature="0" />
      <g
         style="fill:#001580;fill-opacity:1"
         id="g4303">
        <path
           inkscape:connector-curvature="0"
           id="path4401"
           style="font-style:normal;font-weight:normal;font-size:medium;line-height:125%;font-family:sans-serif;letter-spacing:0px;word-spacing:0px;fill:#001580;fill-opacity:1;stroke:#000094;stroke-width:1.5;stroke-linecap:butt;stroke-linejoin:miter;stroke-miterlimit:4;stroke-dasharray:none;stroke-opacity:1"
           d="m -24588.896,-19576.765 0,9.675 5.555,0 q 2.794,0 4.132,-1.185 1.354,-1.203 1.354,-3.661 0,-2.477 -1.354,-3.644 -1.338,-1.185 -4.132,-1.185 l -5.555,0 z m 0,-10.86 0,7.959 5.126,0 q 2.538,0 3.772,-0.972 1.252,-0.991 1.252,-3.007 0,-1.999 -1.252,-2.989 -1.234,-0.991 -3.772,-0.991 l -5.126,0 z m -3.463,-2.936 8.846,0 q 3.961,0 6.104,1.698 2.143,1.698 2.143,4.829 0,2.423 -1.097,3.856 -1.097,1.432 -3.223,1.786 2.554,0.566 3.96,2.37 1.423,1.786 1.423,4.475 0,3.537 -2.332,5.465 -2.331,1.928 -6.635,1.928 l -9.189,0 0,-26.407 z" />
        <path
           inkscape:connector-curvature="0"
           id="path4403"
           style="font-style:normal;font-weight:normal;font-size:medium;line-height:125%;font-family:sans-serif;letter-spacing:0px;word-spacing:0px;fill:#001580;fill-opacity:1;stroke:#000094;stroke-width:1.5;stroke-linecap:butt;stroke-linejoin:miter;stroke-miterlimit:4;stroke-dasharray:none;stroke-opacity:1"
           d="m -24568.682,-19590.561 3.48,0 0,16.042 q 0,4.245 1.492,6.12 1.491,1.857 4.835,1.857 3.326,0 4.817,-1.857 1.492,-1.875 1.492,-6.12 l 0,-16.042 3.48,0 0,16.484 q 0,5.165 -2.486,7.8 -2.469,2.636 -7.303,2.636 -4.852,0 -7.338,-2.636 -2.469,-2.635 -2.469,-7.8 l 0,-16.484 z" />
        <path
           inkscape:connector-curvature="0"
           id="path4405"
           style="font-style:normal;font-weight:normal;font-size:medium;line-height:125%;font-family:sans-serif;letter-spacing:0px;word-spacing:0px;fill:#001580;fill-opacity:1;stroke:#000094;stroke-width:1.5;stroke-linecap:butt;stroke-linejoin:miter;stroke-miterlimit:4;stroke-dasharray:none;stroke-opacity:1"
           d="m -24542.571,-19590.561 3.464,0 0,26.407 -3.464,0 0,-26.407 z" />
        <path
           inkscape:connector-curvature="0"
           id="path4407"
           style="font-style:normal;font-weight:normal;font-size:medium;line-height:125%;font-family:sans-serif;letter-spacing:0px;word-spacing:0px;fill:#001580;fill-opacity:1;stroke:#000094;stroke-width:1.5;stroke-linecap:butt;stroke-linejoin:miter;stroke-miterlimit:4;stroke-dasharray:none;stroke-opacity:1"
           d="m -24532.215,-19590.561 3.463,0 0,23.4 12.464,0 0,3.007 -15.927,0 0,-26.407 z" />
        <path
           inkscape:connector-curvature="0"
           id="path4409"
           style="font-style:normal;font-weight:normal;font-size:medium;line-height:125%;font-family:sans-serif;letter-spacing:0px;word-spacing:0px;fill:#001580;fill-opacity:1;stroke:#000094;stroke-width:1.5;stroke-linecap:butt;stroke-linejoin:miter;stroke-miterlimit:4;stroke-dasharray:none;stroke-opacity:1"
           d="m -24509.207,-19587.625 0,20.535 4.183,0 q 5.298,0 7.75,-2.476 2.469,-2.477 2.469,-7.818 0,-5.306 -2.469,-7.764 -2.452,-2.477 -7.75,-2.477 l -4.183,0 z m -3.463,-2.936 7.115,0 q 7.441,0 10.921,3.202 3.481,3.183 3.481,9.975 0,6.827 -3.498,10.028 -3.497,3.202 -10.904,3.202 l -7.115,0 0,-26.407 z" />
        <path
           inkscape:connector-curvature="0"
           id="path4411"
           style="font-style:normal;font-weight:normal;font-size:medium;line-height:125%;font-family:sans-serif;letter-spacing:0px;word-spacing:0px;fill:#001580;fill-opacity:1;stroke:#000094;stroke-width:1.5;stroke-linecap:butt;stroke-linejoin:miter;stroke-miterlimit:4;stroke-dasharray:none;stroke-opacity:1"
           d="m -24485.65,-19590.561 3.463,0 0,26.407 -3.463,0 0,-26.407 z" />
        <path
           inkscape:connector-curvature="0"
           id="path4413"
           style="font-style:normal;font-weight:normal;font-size:medium;line-height:125%;font-family:sans-serif;letter-spacing:0px;word-spacing:0px;fill:#001580;fill-opacity:1;stroke:#000094;stroke-width:1.5;stroke-linecap:butt;stroke-linejoin:miter;stroke-miterlimit:4;stroke-dasharray:none;stroke-opacity:1"
           d="m -24475.294,-19590.561 4.663,0 11.35,22.091 0,-22.091 3.36,0 0,26.407 -4.663,0 -11.35,-22.091 0,22.091 -3.36,0 0,-26.407 z" />
        <path
           inkscape:connector-curvature="0"
           id="path4415"
           style="font-style:normal;font-weight:normal;font-size:medium;line-height:125%;font-family:sans-serif;letter-spacing:0px;word-spacing:0px;fill:#001580;fill-opacity:1;stroke:#000094;stroke-width:1.5;stroke-linecap:butt;stroke-linejoin:miter;stroke-miterlimit:4;stroke-dasharray:none;stroke-opacity:1"
           d="m -24431.575,-19567.922 0,-7.092 -5.658,0 0,-2.936 9.087,0 0,11.337 q -2.006,1.468 -4.424,2.229 -2.417,0.743 -5.16,0.743 -6.001,0 -9.395,-3.608 -3.378,-3.626 -3.378,-10.082 0,-6.473 3.378,-10.081 3.394,-3.626 9.395,-3.626 2.503,0 4.749,0.637 2.263,0.636 4.166,1.874 l 0,3.803 q -1.92,-1.68 -4.08,-2.529 -2.161,-0.849 -4.544,-0.849 -4.697,0 -7.063,2.706 -2.349,2.706 -2.349,8.065 0,5.341 2.349,8.048 2.366,2.706 7.063,2.706 1.835,0 3.275,-0.319 1.44,-0.336 2.589,-1.026 z" />
      </g>
      <g
         id="text4396"
         style="font-style:normal;font-weight:normal;font-size:34.06851959px;line-height:125%;font-family:sans-serif;letter-spacing:0px;word-spacing:0px;fill:#001580;fill-opacity:1;stroke:#000094;stroke-width:1.5;stroke-linecap:butt;stroke-linejoin:miter;stroke-miterlimit:4;stroke-dasharray:none;stroke-opacity:1"
         transform="matrix(1.0500426,0,0,0.95234232,-23797.856,-19279.285)">
        <path
           inkscape:connector-curvature="0"
           id="path4418"
           style="stroke:#000094;stroke-width:1.5;stroke-miterlimit:4;stroke-dasharray:none;stroke-opacity:1;fill:#001580;fill-opacity:1"
           d="m -741.88002,-288.43906 0,3.2771 q -1.91303,-0.91493 -3.6098,-1.36407 -1.69677,-0.44915 -3.2771,-0.44915 -2.74477,0 -4.24193,1.06464 -1.48051,1.06465 -1.48051,3.02758 0,1.64686 0.98146,2.49525 0.9981,0.83175 3.75952,1.34744 l 2.02947,0.41587 q 3.75951,0.71531 5.53946,2.52853 1.79658,1.79658 1.79658,4.82415 0,3.6098 -2.42871,5.47292 -2.41208,1.86312 -7.08652,1.86312 -1.76331,0 -3.75951,-0.39924 -1.97957,-0.39924 -4.10885,-1.18108 l 0,-3.46009 q 2.04611,1.14782 4.00904,1.73005 1.96293,0.58222 3.85932,0.58222 2.87786,0 4.44155,-1.13118 1.56369,-1.13118 1.56369,-3.22719 0,-1.82986 -1.13118,-2.86123 -1.11454,-1.03137 -3.67634,-1.54705 l -2.0461,-0.39924 q -3.75952,-0.74858 -5.43965,-2.34554 -1.68014,-1.59696 -1.68014,-4.44155 0,-3.29374 2.31227,-5.19013 2.3289,-1.89639 6.40448,-1.89639 1.74668,0 3.55989,0.31607 1.81322,0.31606 3.70961,0.94819 z" />
        <path
           inkscape:connector-curvature="0"
           id="path4420"
           style="stroke:#000094;stroke-width:1.5;stroke-miterlimit:4;stroke-dasharray:none;stroke-opacity:1;fill:#001580;fill-opacity:1"
           d="m -735.14284,-289.25417 15.70346,0 0,2.82795 -12.34318,0 0,7.35268 11.8275,0 0,2.82795 -11.8275,0 0,8.99955 12.64261,0 0,2.82795 -16.00289,0 0,-24.83608 z" />
        <path
           inkscape:connector-curvature="0"
           id="path4422"
           style="stroke:#000094;stroke-width:1.5;stroke-miterlimit:4;stroke-dasharray:none;stroke-opacity:1;fill:#001580;fill-opacity:1"
           d="m -701.80626,-276.0626 q 1.08128,0.36597 2.09601,1.56369 1.03138,1.19772 2.06275,3.29373 l 3.41018,6.78709 -3.6098,0 -3.17729,-6.37121 q -1.23099,-2.49526 -2.39544,-3.31037 -1.14782,-0.81512 -3.14402,-0.81512 l -3.65971,0 0,10.4967 -3.36027,0 0,-24.83608 7.58557,0 q 4.25856,0 6.35457,1.77994 2.09602,1.77995 2.09602,5.37311 0,2.34554 -1.09791,3.8926 -1.08128,1.54705 -3.16066,2.14592 z m -8.41732,-10.43016 0,8.81656 4.2253,0 q 2.42871,0 3.6597,-1.11455 1.24763,-1.13118 1.24763,-3.31037 0,-2.17918 -1.24763,-3.2771 -1.23099,-1.11454 -3.6597,-1.11454 l -4.2253,0 z" />
        <path
           inkscape:connector-curvature="0"
           id="path4424"
           style="stroke:#000094;stroke-width:1.5;stroke-miterlimit:4;stroke-dasharray:none;stroke-opacity:1;fill:#001580;fill-opacity:1"
           d="m -685.35422,-264.41809 -9.48196,-24.83608 3.50999,0 7.86836,20.91021 7.885,-20.91021 3.49336,0 -9.46533,24.83608 -3.80942,0 z" />
        <path
           inkscape:connector-curvature="0"
           id="path4426"
           style="stroke:#000094;stroke-width:1.5;stroke-miterlimit:4;stroke-dasharray:none;stroke-opacity:1;fill:#001580;fill-opacity:1"
           d="m -668.46968,-289.25417 3.36028,0 0,24.83608 -3.36028,0 0,-24.83608 z" />
        <path
           inkscape:connector-curvature="0"
           id="path4428"
           style="stroke:#000094;stroke-width:1.5;stroke-miterlimit:4;stroke-dasharray:none;stroke-opacity:1;fill:#001580;fill-opacity:1"
           d="m -639.82417,-287.34115 0,3.54326 q -1.69677,-1.58033 -3.62644,-2.36217 -1.91302,-0.78185 -4.07558,-0.78185 -4.25856,0 -6.52092,2.6117 -2.26237,2.59506 -2.26237,7.51903 0,4.90733 2.26237,7.51903 2.26236,2.59506 6.52092,2.59506 2.16256,0 4.07558,-0.78184 1.92967,-0.78185 3.62644,-2.36218 l 0,3.50999 q -1.76331,1.19772 -3.74288,1.79658 -1.96293,0.59886 -4.15876,0.59886 -5.63927,0 -8.8831,-3.44344 -3.24383,-3.46009 -3.24383,-9.43206 0,-5.98861 3.24383,-9.43206 3.24383,-3.46008 8.8831,-3.46008 2.2291,0 4.19203,0.59886 1.97957,0.58223 3.70961,1.76331 z" />
        <path
           inkscape:connector-curvature="0"
           id="path4430"
           style="stroke:#000094;stroke-width:1.5;stroke-miterlimit:4;stroke-dasharray:none;stroke-opacity:1;fill:#001580;fill-opacity:1"
           d="m -634.60078,-289.25417 15.70346,0 0,2.82795 -12.34319,0 0,7.35268 11.8275,0 0,2.82795 -11.8275,0 0,8.99955 12.64262,0 0,2.82795 -16.00289,0 0,-24.83608 z" />
        <path
           inkscape:connector-curvature="0"
           id="path4432"
           style="stroke:#000094;stroke-width:1.5;stroke-miterlimit:4;stroke-dasharray:none;stroke-opacity:1;fill:#001580;fill-opacity:1"
           d="m -598.15346,-288.43906 0,3.2771 q -1.91302,-0.91493 -3.6098,-1.36407 -1.69677,-0.44915 -3.27709,-0.44915 -2.74478,0 -4.24193,1.06464 -1.48052,1.06465 -1.48052,3.02758 0,1.64686 0.98147,2.49525 0.9981,0.83175 3.75951,1.34744 l 2.02947,0.41587 q 3.75952,0.71531 5.53946,2.52853 1.79659,1.79658 1.79659,4.82415 0,3.6098 -2.42872,5.47292 -2.41207,1.86312 -7.08652,1.86312 -1.76331,0 -3.75951,-0.39924 -1.97957,-0.39924 -4.10885,-1.18108 l 0,-3.46009 q 2.04611,1.14782 4.00904,1.73005 1.96293,0.58222 3.85932,0.58222 2.87786,0 4.44156,-1.13118 1.56369,-1.13118 1.56369,-3.22719 0,-1.82986 -1.13118,-2.86123 -1.11455,-1.03137 -3.67634,-1.54705 l -2.04611,-0.39924 q -3.75952,-0.74858 -5.43965,-2.34554 -1.68014,-1.59696 -1.68014,-4.44155 0,-3.29374 2.31227,-5.19013 2.3289,-1.89639 6.40448,-1.89639 1.74668,0 3.55989,0.31607 1.81322,0.31606 3.70961,0.94819 z" />
      </g>
    </g>
  </g>
</svg>
